# xmcd
#
# Track frame offsets: 
#        150
#        15392
#        27780
#        39405
#        53250
#        63370
#        77035
#        90142
#        102160
#        118717
#        129215
#        144305
#        155520
#        167545
#        179785
#        193942
#        209595
#        220930
#
# Disc length: 3139 seconds
#
# Revision: 10
# Processed by: cddbd v1.5.2PL0 Copyright (c) Steve Scherf et al.
# Submitted via: ExactAudioCopyFreeDBPlugin 1.0
#
DISCID=e60c4112
DTITLE=Various Artist - Blue Yule
DYEAR=1991
DGENRE=Christmas
TTITLE0=Eddie C. Campbell - Santa's Messin' With The Kid
TTITLE1=Lightening Hopkins - Merry Christmas
TTITLE2=Canned Heat - Christmas Blues
TTITLE3=Roy Milton - Christmas Time Blues
TTITLE4=Detroit Junior - Christmas Day
TTITLE5=Texas Pete Mayes and His Houserockers Blues Band - Christmas Hol
TTITLE5=idays
TTITLE6=Charles Brown and Band - Merry Christmas Baby
TTITLE7=The Insight - Please Come Home for Christmas
TTITLE8=Big Jack Johnson - Jingle Bell Boogie
TTITLE9=Jimmy McCracklin - Christmas Time - Pt.1
TTITLE10=Louis Jordan - Santa Claus, Santa Claus
TTITLE11=The Voices - Santa Claus Baby
TTITLE12=Jimmy Liggins and His Drops Of Joy - I Want My Baby For Christm
TTITLE12=as
TTITLE13=Sonny Boy Williamson - Santa Claus
TTITLE14=Poppa Hop and His Orchestra - Merry Christmas Darling
TTITLE15=John Lee Hooker - Blues For Christmas
TTITLE16=The Pilgrim Travelers - I'll Be Home For Christmas
TTITLE17=Lightening Hopkins - Happy New Year
EXTD=LABEL =Rhino Records Inc.\nID =R270568\nUPC =08122-70568-27\nC
EXTD=OPYRIGHT =1991 YEAR: 1991
EXTT0=
EXTT1=
EXTT2=
EXTT3=
EXTT4=
EXTT5=
EXTT6=
EXTT7=
EXTT8=
EXTT9=
EXTT10=
EXTT11=
EXTT12=
EXTT13=
EXTT14=
EXTT15=
EXTT16=
EXTT17=
PLAYORDER=
